<?xml version="1.0" encoding="UTF-8"?>
<!DOCTYPE svg PUBLIC "-//W3C//DTD SVG 1.1//EN" "http://www.w3.org/Graphics/SVG/1.1/DTD/svg11.dtd">
<!-- Creator: CorelDRAW 2018 (64-Bit) -->
<svg xmlns="http://www.w3.org/2000/svg" xml:space="preserve" width="1.5748in" height="1.5748in" version="1.1" style="shape-rendering:geometricPrecision; text-rendering:geometricPrecision; image-rendering:optimizeQuality; fill-rule:evenodd; clip-rule:evenodd"
viewBox="0 0 1574.8 1574.8"
 xmlns:xlink="http://www.w3.org/1999/xlink">
 <defs>
  <style type="text/css">
   <![CDATA[
    .fil0 {fill:#000}
   ]]>
  </style>
 </defs>
 <g id="Layer_x0020_1">
  <metadata id="CorelCorpID_0Corel-Layer"/>
  <path class="fil0" d="M17.33 379.48l324.38 0c9.53,0 17.33,7.8 17.33,17.33l0 829.17c0,9.53 -7.8,17.33 -17.33,17.33l-324.38 0c-9.53,0 -17.33,-7.8 -17.33,-17.33l0 -829.17c0,-9.53 7.8,-17.33 17.33,-17.33zm1215.76 -88.87l324.38 0c9.53,0 17.33,7.8 17.33,17.33l0 917.15c0,9.53 -7.8,17.33 -17.33,17.33l-324.38 0c-9.53,0 -17.33,-7.8 -17.33,-17.33l0 -917.15c0,-9.53 7.8,-17.33 17.33,-17.33zm70.42 687.76l95.09 0 0 95.09 -95.09 0 0 -95.09zm0 -259.5l95.09 0 0 95.09 -95.09 0 0 -95.09zm0 -260.4l95.09 0 0 95.09 -95.09 0 0 -95.09zm-893.82 -325.17l755.39 0c7.34,0 13.34,6 13.34,13.34l0 1281.51c0,7.34 -6,13.34 -13.34,13.34l-276.38 0 0 -288.38 -202.63 0 0 288.38 -276.38 0c-7.34,0 -13.34,-6 -13.34,-13.34l0 -1281.51c0,-7.34 6,-13.34 13.34,-13.34zm119.15 703.03l95.09 0 0 95.09 -95.09 0 0 -95.09zm415.92 0l95.09 0 0 95.09 -95.09 0 0 -95.09zm-207.07 0l95.09 0 0 95.09 -95.09 0 0 -95.09zm-208.85 -273.72l95.09 0 0 95.09 -95.09 0 0 -95.09zm415.92 0l95.09 0 0 95.09 -95.09 0 0 -95.09zm-207.07 0l95.09 0 0 95.09 -95.09 0 0 -95.09zm-208.85 -268.71l95.09 0 0 95.09 -95.09 0 0 -95.09zm415.92 0l95.09 0 0 95.09 -95.09 0 0 -95.09zm-207.07 0l95.09 0 0 95.09 -95.09 0 0 -95.09zm-564.15 729.75l95.09 0 0 95.09 -95.09 0 0 -95.09zm0 -259.5l95.09 0 0 95.09 -95.09 0 0 -95.09zm0 -259.79l95.09 0 0 95.09 -95.09 0 0 -95.09z"/>
 </g>
</svg>
