<?xml version="1.0" encoding="UTF-8"?>
<!DOCTYPE svg PUBLIC "-//W3C//DTD SVG 1.1//EN" "http://www.w3.org/Graphics/SVG/1.1/DTD/svg11.dtd">
<!-- Creator: CorelDRAW 2018 (64-Bit) -->
<svg xmlns="http://www.w3.org/2000/svg" xml:space="preserve" width="1.5748in" height="1.5748in" version="1.1" style="shape-rendering:geometricPrecision; text-rendering:geometricPrecision; image-rendering:optimizeQuality; fill-rule:evenodd; clip-rule:evenodd"
viewBox="0 0 1574.8 1574.8"
 xmlns:xlink="http://www.w3.org/1999/xlink">
 <defs>
  <style type="text/css">
   <![CDATA[
    .fil0 {fill:#373435;fill-rule:nonzero}
   ]]>
  </style>
 </defs>
 <g id="Layer_x0020_1">
  <metadata id="CorelCorpID_0Corel-Layer"/>
  <path class="fil0" d="M296.56 185.72l44.67 0c14.81,0 26.83,12.02 26.83,26.83l0 89.55c0,35.46 14.52,67.72 37.92,91.11 23.39,23.39 55.65,37.92 91.11,37.92 36.74,0 72.57,-15.37 98.97,-40.01 24.91,-23.26 41.14,-54.74 41.14,-89.02l0 -89.55c0,-14.81 12.02,-26.83 26.83,-26.83l224.49 0c14.81,0 26.83,12.02 26.83,26.83l0 89.55c0,34.18 16.4,65.61 41.49,88.89 26.64,24.72 62.78,40.14 99.62,40.14 35.46,0 67.72,-14.53 91.12,-37.92 23.4,-23.39 37.92,-55.65 37.92,-91.11l0 -89.55c0,-14.81 12.02,-26.83 26.83,-26.83l65.89 0c56.04,0 106.98,22.91 143.88,59.82 36.91,36.91 59.82,87.84 59.82,143.89l0 981.67c0,56.04 -22.91,106.98 -59.82,143.89 -36.91,36.91 -87.85,59.82 -143.88,59.82l-981.68 0c-56.04,0 -106.98,-22.91 -143.88,-59.82 -36.91,-36.91 -59.82,-87.85 -59.82,-143.89l0 -981.67c0,-56.04 22.91,-106.98 59.82,-143.89 36.91,-36.91 87.84,-59.82 143.88,-59.82zm100.6 831.31l196.78 0c14.81,0 26.83,12.02 26.83,26.83l0 196.78c0,14.81 -12.02,26.83 -26.83,26.83l-196.78 0c-14.81,0 -26.83,-12.02 -26.83,-26.83l0 -196.78c0,-14.82 12.02,-26.83 26.83,-26.83zm169.94 53.67l-143.11 0 0 143.11 143.11 0 0 -143.11zm410.88 -53.67l196.78 0c14.81,0 26.83,12.02 26.83,26.83l0 196.78c0,14.81 -12.02,26.83 -26.83,26.83l-196.78 0c-14.81,0 -26.83,-12.02 -26.83,-26.83l0 -196.78c0,-14.82 12.02,-26.83 26.83,-26.83zm169.94 53.67l-143.11 0 0 143.11 143.11 0 0 -143.11zm-465.11 -53.67l196.78 0c14.81,0 26.83,12.02 26.83,26.83l0 196.78c0,14.81 -12.02,26.83 -26.83,26.83l-196.78 0c-14.81,0 -26.83,-12.02 -26.83,-26.83l0 -196.78c0,-14.82 12.02,-26.83 26.83,-26.83zm169.94 53.67l-143.11 0 0 143.11 143.11 0 0 -143.11zm125.22 -349.93l196.78 0c14.81,0 26.83,12.02 26.83,26.83l0 196.78c0,14.81 -12.02,26.83 -26.83,26.83l-196.78 0c-14.81,0 -26.83,-12.02 -26.83,-26.83l0 -196.78c0,-14.81 12.02,-26.83 26.83,-26.83zm169.94 53.67l-143.11 0 0 143.11 143.11 0 0 -143.11zm-465.11 -53.67l196.78 0c14.81,0 26.83,12.02 26.83,26.83l0 196.78c0,14.81 -12.02,26.83 -26.83,26.83l-196.78 0c-14.81,0 -26.83,-12.02 -26.83,-26.83l0 -196.78c0,-14.81 12.02,-26.83 26.83,-26.83zm169.94 53.67l-143.11 0 0 143.11 143.11 0 0 -143.11zm-458.91 -160.89l787.09 0c31.72,0 60.56,12.96 81.43,33.84l1.54 1.68c19.98,20.79 32.3,48.93 32.3,79.75l0 523.99c0,31.63 -12.98,60.44 -33.9,81.38l0.06 0.06c-20.88,20.88 -49.71,33.84 -81.43,33.84l-787.09 0c-31.72,0 -60.56,-12.96 -81.43,-33.84l-1.53 -1.66c-19.98,-20.75 -32.31,-48.9 -32.31,-79.77l0 -523.99c0,-31.72 12.96,-60.56 33.84,-81.43 20.88,-20.88 49.71,-33.84 81.43,-33.84zm787.09 53.67l-787.09 0c-16.92,0 -32.32,6.94 -43.5,18.11 -11.17,11.17 -18.11,26.57 -18.11,43.49l0 523.99c0,16.39 6.46,31.33 16.94,42.39l1.17 1.1c11.17,11.17 26.57,18.11 43.5,18.11l787.09 0c16.92,0 32.32,-6.94 43.5,-18.11l0.05 0.05 0.05 -0.05c11.11,-11.11 18.01,-26.51 18.01,-43.5l0 -523.99c0,-16.42 -6.45,-31.35 -16.91,-42.37l-1.2 -1.13c-11.17,-11.17 -26.57,-18.11 -43.5,-18.11zm-131.26 -667.2c30.81,0 58.81,12.59 79.09,32.87 20.28,20.28 32.87,48.28 32.87,79.08l0 185.73c0,30.72 -12.61,58.7 -32.92,79.03l0.06 0.06c-20.28,20.28 -48.28,32.87 -79.09,32.87 -30.81,0 -58.81,-12.59 -79.09,-32.87l-1.55 -1.69c-19.37,-20.19 -31.32,-47.5 -31.32,-77.4l0 -185.73c0,-30.81 12.59,-58.81 32.87,-79.08 20.28,-20.28 48.28,-32.87 79.09,-32.87zm0 53.67c-16.01,0 -30.58,6.57 -41.15,17.14 -10.57,10.57 -17.14,25.14 -17.14,41.15l0 185.73c0,15.51 6.08,29.61 15.95,40.02l1.19 1.12c10.57,10.57 25.15,17.14 41.15,17.14 16.01,0 30.58,-6.57 41.15,-17.14l0.05 0.06 0.05 -0.06c10.51,-10.5 17.04,-25.07 17.04,-41.14l0 -185.73c0,-16 -6.57,-30.57 -17.14,-41.15 -10.57,-10.57 -25.15,-17.14 -41.15,-17.14zm-546.7 -53.67c30.73,0 58.71,12.61 79.04,32.92l0.06 -0.06c20.28,20.28 32.87,48.28 32.87,79.08l0 185.73c0,30.69 -12.59,58.65 -32.87,78.98l-0.17 0.17c-20.32,20.25 -48.26,32.81 -78.92,32.81 -30.7,0 -58.66,-12.59 -78.99,-32.87l-0.16 -0.17c-20.25,-20.32 -32.81,-48.26 -32.81,-78.92l0 -185.73c0,-30.81 12.59,-58.81 32.87,-79.08l1.69 -1.55c20.19,-19.37 47.49,-31.32 77.39,-31.32zm0.01 53.67c-15.52,0 -29.62,6.08 -40.04,15.95l-1.12 1.19c-10.57,10.57 -17.14,25.14 -17.14,41.15l0 185.73c0,16.07 6.53,30.64 17.04,41.14l0.1 0.11c10.51,10.5 25.07,17.04 41.14,17.04 16.08,0 30.65,-6.53 41.16,-17.04l0.1 -0.11c10.51,-10.5 17.04,-25.07 17.04,-41.14l0 -185.73c0,-16 -6.57,-30.57 -17.14,-41.15l0.05 -0.05 -0.05 -0.05c-10.51,-10.51 -25.07,-17.04 -41.15,-17.04zm-188.61 185.72l-17.84 0c-41.24,0 -78.74,16.89 -105.94,44.09 -27.2,27.2 -44.09,64.71 -44.09,105.95l0 981.67c0,41.24 16.89,78.75 44.09,105.95 27.2,27.2 64.71,44.09 105.94,44.09l981.68 0c41.23,0 78.74,-16.89 105.94,-44.09 27.2,-27.2 44.09,-64.71 44.09,-105.95l0 -981.67c0,-41.24 -16.89,-78.74 -44.09,-105.95 -27.2,-27.2 -64.71,-44.09 -105.94,-44.09l-39.06 0 0 62.71c0,50.26 -20.55,95.95 -53.65,129.05 -33.1,33.1 -78.79,53.65 -129.05,53.65 -50.5,0 -99.86,-20.98 -136.1,-54.61 -35.49,-32.94 -58.68,-78.15 -58.68,-128.09l0 -62.71 -170.82 0 0 62.71c0,49.97 -23,95.24 -58.33,128.22 -35.94,33.56 -84.98,54.48 -135.44,54.48 -50.26,0 -95.96,-20.55 -129.06,-53.65 -33.1,-33.1 -53.65,-78.79 -53.65,-129.05l0 -62.71z"/>
 </g>
</svg>
