<?xml version="1.0" encoding="UTF-8"?>
<!DOCTYPE svg PUBLIC "-//W3C//DTD SVG 1.1//EN" "http://www.w3.org/Graphics/SVG/1.1/DTD/svg11.dtd">
<!-- Creator: CorelDRAW 2018 (64-Bit) -->
<svg xmlns="http://www.w3.org/2000/svg" xml:space="preserve" width="1.5748in" height="1.5748in" version="1.1" style="shape-rendering:geometricPrecision; text-rendering:geometricPrecision; image-rendering:optimizeQuality; fill-rule:evenodd; clip-rule:evenodd"
viewBox="0 0 1574.8 1574.8"
 xmlns:xlink="http://www.w3.org/1999/xlink">
 <defs>
  <style type="text/css">
   <![CDATA[
    .fil0 {fill:#373435}
   ]]>
  </style>
 </defs>
 <g id="Layer_x0020_1">
  <metadata id="CorelCorpID_0Corel-Layer"/>
  <path class="fil0" d="M787.4 0c258.46,0 467.97,209.52 467.97,467.98 0,116.37 -42.48,222.77 -112.75,304.66l0 0.04c-94.59,118.43 -195.09,266.72 -280.05,447.05 -27.05,57.46 -43.15,113.34 -74.88,112.82l-0.52 0c-31.74,0.52 -47.83,-55.36 -74.88,-112.82 -84.96,-180.33 -185.46,-328.61 -280.05,-447.05l0 -0.04c-70.27,-81.86 -112.75,-188.3 -112.75,-304.66 0,-258.46 209.52,-467.98 467.97,-467.98l0 0 -0.07 0zm173.35 1137.65c142.68,8.78 270.34,28.2 370.69,54.95 146.26,39.01 236.72,95.77 236.72,160.99 0,65.25 -90.46,122.01 -236.72,160.98 -139.54,37.2 -331.9,60.23 -544.04,60.23 -212.14,0 -404.5,-22.99 -544.04,-60.23 -146.26,-39.01 -236.72,-95.77 -236.72,-160.98 0,-65.25 90.46,-122.02 236.72,-160.99 99.39,-26.5 225.61,-45.8 366.67,-54.7l18.45 34.44c-145.37,8.23 -275.1,27.57 -376.11,54.51 -129.87,34.62 -210.22,79.61 -210.22,126.74 0,47.13 80.35,92.12 210.22,126.74 136.63,36.43 325.74,58.98 535,58.98 209.26,0 398.41,-22.55 535,-58.98 129.87,-34.62 210.22,-79.61 210.22,-126.74 0,-47.13 -80.34,-92.12 -210.22,-126.74 -101.97,-27.2 -233.25,-46.65 -380.29,-54.73l18.6 -34.47 -0.04 0 0.11 0zm-173.35 -901.15c126.74,0 229.48,102.75 229.48,229.49 0,126.74 -102.75,229.48 -229.48,229.48 -126.74,0 -229.45,-102.75 -229.45,-229.48 0,-126.74 102.75,-229.49 229.45,-229.49z"/>
 </g>
</svg>
