<?xml version="1.0" encoding="UTF-8"?>
<!DOCTYPE svg PUBLIC "-//W3C//DTD SVG 1.1//EN" "http://www.w3.org/Graphics/SVG/1.1/DTD/svg11.dtd">
<!-- Creator: CorelDRAW 2018 (64-Bit) -->
<svg xmlns="http://www.w3.org/2000/svg" xml:space="preserve" width="1.5748in" height="1.5748in" version="1.1" style="shape-rendering:geometricPrecision; text-rendering:geometricPrecision; image-rendering:optimizeQuality; fill-rule:evenodd; clip-rule:evenodd"
viewBox="0 0 1574.8 1574.8"
 xmlns:xlink="http://www.w3.org/1999/xlink">
 <defs>
  <style type="text/css">
   <![CDATA[
    .fil0 {fill:#373435}
   ]]>
  </style>
 </defs>
 <g id="Layer_x0020_1">
  <metadata id="CorelCorpID_0Corel-Layer"/>
  <path class="fil0" d="M789.19 268.01c90.37,0 163.64,73.27 163.64,163.65 0,40.69 -14.85,77.91 -39.43,106.53l0 0.01c-33.08,41.41 -68.22,93.27 -97.94,156.33 -9.46,20.09 -15.09,39.63 -26.19,39.46l-0.18 0c-11.09,0.18 -16.72,-19.36 -26.19,-39.46 -29.71,-63.06 -64.85,-114.92 -97.94,-156.33l0 -0.01c-24.58,-28.63 -39.43,-65.84 -39.43,-106.53 0,-90.38 73.27,-163.65 163.65,-163.65l0.01 0zm-789.18 816.93l345.99 218.89 57.54 -200.65c-4.22,-7.45 -8.13,-17.88 -13.12,-28.46 -29.57,-62.74 -64.53,-114.35 -97.45,-155.56l0 -0.01c-24.45,-28.49 -39.24,-65.52 -39.24,-106.01 0,-89.93 72.9,-162.83 162.83,-162.83 34.79,0 67.02,10.92 93.48,29.5l15.06 -0.61 8.59 -29.96 -224.07 -45.63 -309.62 481.33 0.01 -0zm352.61 218.74l433.41 -215.98 0 -42.11c-3.96,0.07 -7.91,0.08 -11.85,0.01 -78.73,-1.38 -148.13,-31.35 -145.38,-188.71 0.51,-28.93 -25.79,-37.33 -49.47,-39.06 -1.09,38.66 -15.66,73.94 -39.17,101.32l0 0.01c-32.92,41.2 -67.88,92.81 -97.45,155.56 -9.42,19.99 -15.01,39.43 -26.06,39.26l-0.17 0c-3.13,0.05 -5.81,-1.47 -8.28,-4.13l-55.58 193.83 -0 -0zm439.74 -215.95l175.31 88.59c-2.62,-28.25 -5.89,-63.09 -8.43,-89.1 -5.41,-55.33 -58.75,-50.57 -118.67,-45.2 -15.82,1.42 -32.06,2.87 -48.21,3.41l0 42.3 -0 0zm-260.59 -408.8l198.49 -8.02c-9.99,-17.98 -20.27,-35.06 -30.69,-51.25l-162.76 30.2 3.04 0.86 -8.09 28.2 0.01 0.01zm300.31 22.2l190.37 162.34c-0.26,-3.75 -0.39,-7.53 -0.39,-11.35 0,-42.39 16.2,-80.99 42.74,-109.96l-28.45 -99.96 -156.12 -24.74c-16.58,25.63 -32.85,53.5 -48.16,83.67l0.01 0zm237.8 35.74c29.46,-29.4 70.12,-47.57 115.02,-47.57 89.93,0 162.83,72.9 162.83,162.83 0,40.49 -14.78,77.52 -39.24,106.01l0 0.01c-32.92,41.2 -67.88,92.81 -97.45,155.56 -8.47,17.98 -13.85,35.52 -22.89,38.73l43.93 154.36 342.73 -216.81 -306.36 -483.11 -225.51 35.4 26.93 94.61 0.01 -0.01zm111.7 415.54c-9,-3.27 -14.38,-20.77 -22.83,-38.71 -29.57,-62.74 -64.53,-114.35 -97.45,-155.56l0 -0.01c-13.65,-15.91 -24.29,-34.47 -31.02,-54.82l-209.65 -178.78 -0.09 0.2c-10.38,22.04 -16.89,43.52 -28.17,46.65l0 248.8c15.3,-0.54 30.86,-1.93 46.03,-3.29 73.06,-6.54 138.1,-12.36 145.95,67.94 3.31,33.85 7.27,75.99 9.96,104.93l231.17 116.83 -43.89 -154.2 -0.01 0.02zm-395.55 -381.02c-11.28,-3.13 -17.79,-24.61 -28.17,-46.65 -4.68,-9.94 -9.48,-19.64 -14.37,-29.11l-206.13 8.33c21.8,24.1 36.49,54.76 40.76,88.67 33.78,1.86 76.78,14.12 75.89,64.66 -2.38,136.09 55.21,161.96 120.57,163.11 3.79,0.07 7.61,0.06 11.46,-0.02l0 -248.98 -0.01 -0.01zm398.87 0.19c44.09,0 79.84,35.75 79.84,79.85 0,44.1 -35.75,79.84 -79.84,79.84 -33.07,0 -61.44,-20.09 -73.56,-48.74l-5.33 -18.72c-0.63,-4.03 -0.96,-8.17 -0.96,-12.38 0,-44.1 35.75,-79.85 79.85,-79.85l0 0zm-768.32 -38.98c44.09,0 79.84,35.75 79.84,79.85 0,44.09 -35.75,79.84 -79.84,79.84 -44.1,0 -79.85,-35.75 -79.85,-79.84 0,-44.1 35.75,-79.85 79.85,-79.85zm372.63 -381.89c44.31,0 80.24,35.93 80.24,80.24 0,44.32 -35.93,80.24 -80.24,80.24 -44.31,0 -80.24,-35.93 -80.24,-80.24 0,-44.31 35.93,-80.24 80.24,-80.24z"/>
 </g>
</svg>
