<?xml version="1.0" encoding="UTF-8"?>
<!DOCTYPE svg PUBLIC "-//W3C//DTD SVG 1.1//EN" "http://www.w3.org/Graphics/SVG/1.1/DTD/svg11.dtd">
<!-- Creator: CorelDRAW 2018 (64-Bit) -->
<svg xmlns="http://www.w3.org/2000/svg" xml:space="preserve" width="1.5748in" height="1.5748in" version="1.1" style="shape-rendering:geometricPrecision; text-rendering:geometricPrecision; image-rendering:optimizeQuality; fill-rule:evenodd; clip-rule:evenodd"
viewBox="0 0 1574.8 1574.8"
 xmlns:xlink="http://www.w3.org/1999/xlink">
 <defs>
  <style type="text/css">
   <![CDATA[
    .fil0 {fill:#373435}
   ]]>
  </style>
 </defs>
 <g id="Layer_x0020_1">
  <metadata id="CorelCorpID_0Corel-Layer"/>
  <path class="fil0" d="M169.09 394.85l190.44 0 0 -131.39c0,-72.48 29.63,-138.36 77.37,-186.09 47.73,-47.74 113.61,-77.37 186.09,-77.37 72.48,0 138.37,29.63 186.1,77.37 47.74,47.73 77.37,113.61 77.37,186.09l0 131.39 190.44 0c40.74,0 74.06,33.32 74.06,74.06l0 377.26 -585.99 0 -65.29 604.62 -330.61 0c-40.74,0 -74.06,-33.33 -74.06,-74.06l0 -907.82c0,-40.74 33.33,-74.06 74.06,-74.06zm190.44 0l0 115.72 61.72 0 0 -115.72 -61.72 0zm61.72 0l403.5 0 0 -131.39c0,-55.45 -22.7,-105.88 -59.28,-142.46 -36.58,-36.58 -87.02,-59.29 -142.46,-59.29 -55.45,0 -105.89,22.71 -142.46,59.29 -36.58,36.57 -59.29,87.01 -59.29,142.46l0 131.39zm403.5 0l0 115.72 61.72 0 0 -115.72 -61.72 0zm-164.56 527.97l729.02 0c20.46,0 35.31,16.82 37.19,37.19l53.23 577.6c1.87,20.36 -16.74,37.19 -37.19,37.19l-840.12 0c-20.45,0 -39.23,-16.83 -37.19,-37.19l57.87 -577.6c2.04,-20.35 16.73,-37.19 37.19,-37.19zm626.52 109.82l0 8.18c0,72.1 -29.48,137.64 -76.97,185.12 -47.48,47.49 -113.02,76.97 -185.12,76.97 -72.11,0 -137.65,-29.48 -185.13,-76.97 -47.49,-47.48 -76.96,-113.02 -76.96,-185.12l0 -8.18 61.72 0 0 8.18c0,55.07 22.56,105.16 58.88,141.49 36.33,36.33 86.42,58.89 141.49,58.89 55.08,0 105.17,-22.56 141.5,-58.89 36.33,-36.33 58.88,-86.42 58.88,-141.49l0 -8.18 61.72 0z"/>
 </g>
</svg>
