<?xml version="1.0" encoding="UTF-8"?>
<!DOCTYPE svg PUBLIC "-//W3C//DTD SVG 1.1//EN" "http://www.w3.org/Graphics/SVG/1.1/DTD/svg11.dtd">
<!-- Creator: CorelDRAW 2018 (64-Bit) -->
<svg xmlns="http://www.w3.org/2000/svg" xml:space="preserve" width="1.5748in" height="1.5748in" version="1.1" style="shape-rendering:geometricPrecision; text-rendering:geometricPrecision; image-rendering:optimizeQuality; fill-rule:evenodd; clip-rule:evenodd"
viewBox="0 0 1574.8 1574.8"
 xmlns:xlink="http://www.w3.org/1999/xlink">
 <defs>
  <style type="text/css">
   <![CDATA[
    .fil0 {fill:#373435;fill-rule:nonzero}
   ]]>
  </style>
 </defs>
 <g id="Layer_x0020_1">
  <metadata id="CorelCorpID_0Corel-Layer"/>
  <path class="fil0" d="M642.56 1026.39c-163.71,14.32 -284.85,58.41 -370.94,125.31 -84.83,65.92 -136.26,154.65 -161.45,259.27l0.12 0.03c-3.06,12.87 -4.47,24.35 -4.28,34.37 0.31,16.33 4.79,29.47 13.26,39.19 9.02,10.35 23.37,17.96 42.84,22.57 15.62,3.7 33.85,5.41 54.61,5.02l0.49 0 0 -0.13 1140.42 0c1.09,0 2.16,0.06 3.22,0.17 19.63,0.19 36.94,-1.52 51.87,-5.06 19.47,-4.62 33.81,-12.22 42.84,-22.57 8.47,-9.71 12.95,-22.85 13.26,-39.19 0.19,-10.02 -1.23,-21.5 -4.28,-34.37l-0.48 -2.48c-25.39,-103.55 -76.68,-191.41 -160.85,-256.82 -86.09,-66.91 -207.23,-110.99 -370.94,-125.31l-2.76 -0.36c-47.61,-4.97 -94.97,-7.45 -142.05,-7.45l0 0.13c-48.62,0 -96.75,2.52 -144.39,7.56l-0.5 0.05 0.01 0.08zm144.85 -1026.22c119.35,0 227.42,48.39 305.65,126.61 78.22,78.22 126.61,186.29 126.61,305.65 0,119.35 -48.39,227.42 -126.61,305.64 -78.22,78.23 -186.3,126.61 -305.65,126.61 -119.35,0 -227.42,-48.39 -305.64,-126.61 -78.22,-78.22 -126.61,-186.29 -126.61,-305.64 0,-119.35 48.39,-227.42 126.61,-305.65 78.22,-78.22 186.29,-126.61 305.64,-126.61zm261.37 170.88c-66.89,-66.89 -159.3,-108.26 -261.37,-108.26 -102.07,0 -194.49,41.38 -261.37,108.26 -66.88,66.88 -108.26,159.3 -108.26,261.37 0,102.07 41.37,194.49 108.26,261.37 66.88,66.89 159.3,108.26 261.37,108.26 102.07,0 194.49,-41.38 261.37,-108.26 66.88,-66.88 108.26,-159.3 108.26,-261.37 0,-102.08 -41.37,-194.49 -108.26,-261.37zm-815.56 931.25c95.44,-74.17 227.5,-122.84 403.96,-138.28l0 0.07c50.6,-5.33 100.69,-8 150.26,-8l0 0.12c49.79,-0 99.33,2.57 148.57,7.71l1.62 0.1c176.47,15.44 308.52,64.11 403.96,138.28 95.91,74.52 154.25,174.19 183.01,291.39 0.32,0.94 0.6,1.9 0.83,2.89 4.14,17.46 6.05,34.09 5.75,49.78 -0.6,31.63 -10.28,58.22 -28.67,79.3 -17.83,20.44 -43.09,34.73 -75.38,42.39 -19.45,4.61 -41.91,6.83 -67.26,6.52l-2.26 0.08 -1140.42 0 0 -0.11c-26.28,0.46 -49.5,-1.74 -69.52,-6.49 -32.3,-7.66 -57.55,-21.95 -75.38,-42.39 -18.39,-21.08 -28.07,-47.68 -28.67,-79.3 -0.3,-15.69 1.61,-32.31 5.75,-49.78l0.12 0.02c28.52,-118.48 87.02,-219.17 183.72,-294.3z"/>
 </g>
</svg>
