<?xml version="1.0" encoding="UTF-8"?>
<!DOCTYPE svg PUBLIC "-//W3C//DTD SVG 1.1//EN" "http://www.w3.org/Graphics/SVG/1.1/DTD/svg11.dtd">
<!-- Creator: CorelDRAW 2018 (64-Bit) -->
<svg xmlns="http://www.w3.org/2000/svg" xml:space="preserve" width="1.5748in" height="1.5748in" version="1.1" style="shape-rendering:geometricPrecision; text-rendering:geometricPrecision; image-rendering:optimizeQuality; fill-rule:evenodd; clip-rule:evenodd"
viewBox="0 0 1574.8 1574.8"
 xmlns:xlink="http://www.w3.org/1999/xlink">
 <defs>
  <style type="text/css">
   <![CDATA[
    .fil0 {fill:#373435}
   ]]>
  </style>
 </defs>
 <g id="Layer_x0020_1">
  <metadata id="CorelCorpID_0Corel-Layer"/>
  <path class="fil0" d="M433.5 1131.67l298.54 -102.44 1.93 4.06c19.09,40.53 30.43,79.94 52.83,79.58l0.35 0c22.39,0.36 33.74,-39.05 52.83,-79.58l2.06 -4.33 299.33 102.7 -353.93 121.44 -353.93 -121.44zm353.47 -958.7c182.3,0 330.09,147.78 330.09,330.09 0,82.07 -29.96,157.14 -79.54,214.89l0 0.02c-53.77,67.31 -110.24,148.31 -161.5,243.78l291.69 -100.09 406.64 139.53 -380.28 130.49 380.73 130.64 -406.64 139.53 -380.74 -130.65 -380.73 130.65 -406.64 -139.53 380.74 -130.64 -380.78 -130.66 406.64 -139.53 291.07 99.87c-51.21,-95.31 -107.59,-176.18 -161.29,-243.4l0 -0.02c-49.57,-57.75 -79.54,-132.81 -79.54,-214.89 0,-182.3 147.78,-330.09 330.09,-330.09zm0 166.82c89.39,0 161.86,72.47 161.86,161.86 0,89.39 -72.46,161.86 -161.86,161.86 -89.39,0 -161.86,-72.46 -161.86,-161.86 0,-89.39 72.46,-161.86 161.86,-161.86z"/>
 </g>
</svg>
